<svg width="39" height="39" viewBox="0 0 39 39" fill="none" xmlns="http://www.w3.org/2000/svg">
<rect x="24.375" width="4.875" height="4.875" transform="rotate(90 24.375 0)" fill="black"/>
<rect x="14.6248" y="34.1249" width="4.875" height="4.875" transform="rotate(90 14.6248 34.1249)" fill="black"/>
<rect x="14.6248" y="19.4999" width="4.875" height="4.875" transform="rotate(90 14.6248 19.4999)" fill="black"/>
<rect x="9.75" y="24.3751" width="4.875" height="4.875" transform="rotate(90 9.75 24.3751)" fill="black"/>
<rect x="9.75" y="34.1249" width="4.875" height="4.875" transform="rotate(90 9.75 34.1249)" fill="black"/>
<rect x="24.375" y="34.1249" width="4.875" height="4.875" transform="rotate(90 24.375 34.1249)" fill="black"/>
<rect x="29.25" y="34.1249" width="4.875" height="4.875" transform="rotate(90 29.25 34.1249)" fill="black"/>
<rect x="38.9998" y="29.2499" width="4.875" height="4.875" transform="rotate(90 38.9998 29.2499)" fill="black"/>
<rect x="38.9998" y="34.1249" width="4.875" height="4.875" transform="rotate(90 38.9998 34.1249)" fill="black"/>
<rect x="29.25" y="4.875" width="4.875" height="4.875" transform="rotate(90 29.25 4.875)" fill="black"/>
<rect x="29.25" y="9.75" width="4.875" height="4.875" transform="rotate(90 29.25 9.75)" fill="black"/>
<rect x="19.5" y="14.625" width="4.875" height="4.875" transform="rotate(90 19.5 14.625)" fill="black"/>
<rect x="14.6248" y="4.875" width="4.875" height="4.875" transform="rotate(90 14.6248 4.875)" fill="black"/>
<rect x="14.6248" y="9.75" width="4.875" height="4.875" transform="rotate(90 14.6248 9.75)" fill="black"/>
<rect x="24.375" y="14.625" width="4.875" height="4.875" transform="rotate(90 24.375 14.625)" fill="black"/>
<rect x="4.87476" y="29.2499" width="4.875" height="4.875" transform="rotate(90 4.87476 29.2499)" fill="black"/>
<rect x="4.87476" y="34.1249" width="4.875" height="4.875" transform="rotate(90 4.87476 34.1249)" fill="black"/>
<rect x="29.25" y="19.4999" width="4.875" height="4.875" transform="rotate(90 29.25 19.4999)" fill="black"/>
<rect x="19.5" y="34.1249" width="4.875" height="4.875" transform="rotate(90 19.5 34.1249)" fill="black"/>
<rect x="34.125" y="24.3751" width="4.875" height="4.875" transform="rotate(90 34.125 24.3751)" fill="black"/>
<rect x="34.125" y="34.1249" width="4.875" height="4.875" transform="rotate(90 34.125 34.1249)" fill="black"/>
<rect x="19.5" width="4.875" height="4.875" transform="rotate(90 19.5 0)" fill="black"/>
</svg>
